<?xml version="1.0" standalone="no"?>
<!DOCTYPE svg PUBLIC "-//W3C//DTD SVG 20010904//EN"
 "http://www.w3.org/TR/2001/REC-SVG-20010904/DTD/svg10.dtd">
<svg version="1.0" xmlns="http://www.w3.org/2000/svg"
 width="512.000000pt" height="512.000000pt" viewBox="0 0 512.000000 512.000000"
 preserveAspectRatio="xMidYMid meet">

<g transform="translate(0.000000,512.000000) scale(0.100000,-0.100000)"
fill="#000000" stroke="none">
<path d="M2060 5105 c-206 -38 -470 -161 -685 -319 -38 -28 -105 -73 -147 -99
-162 -100 -250 -256 -250 -442 0 -54 6 -112 16 -144 9 -30 15 -55 13 -56 -1
-1 -24 -8 -52 -14 -224 -55 -428 -263 -491 -501 -21 -79 -23 -232 -5 -316 l13
-60 -51 -68 c-107 -141 -151 -270 -151 -440 0 -123 24 -219 80 -324 l39 -73
-29 -47 c-54 -89 -83 -195 -88 -322 -4 -131 10 -211 57 -314 53 -117 148 -231
245 -292 l43 -27 6 -121 c8 -170 43 -282 130 -418 75 -116 230 -243 360 -294
40 -15 61 -34 113 -101 214 -274 555 -377 881 -268 159 54 315 175 403 314 25
39 47 70 50 70 3 0 25 -31 50 -70 211 -333 665 -453 1018 -269 105 54 189 125
266 223 52 67 73 86 113 101 129 51 286 179 361 296 85 134 121 247 129 416
l6 121 43 27 c97 61 192 175 245 292 47 103 61 183 57 314 -5 127 -34 233 -88
322 l-29 47 39 73 c56 105 80 201 80 324 0 170 -44 299 -151 440 l-51 68 13
60 c18 84 16 237 -5 316 -63 238 -267 446 -491 501 -27 6 -51 13 -52 14 -2 1
4 26 13 56 10 32 16 90 16 144 0 186 -88 342 -250 442 -42 26 -108 71 -147 99
-269 198 -606 334 -829 334 -115 0 -240 -54 -317 -137 l-39 -43 -39 43 c-109
118 -261 158 -461 122z m264 -180 c53 -26 104 -79 130 -134 21 -45 21 -59 24
-614 2 -464 1 -567 -10 -561 -7 4 -24 15 -38 25 -67 46 -223 74 -270 49 -24
-13 -41 -65 -31 -93 14 -36 36 -48 110 -62 107 -21 171 -68 213 -160 l23 -50
3 -1025 2 -1025 -72 71 c-84 82 -144 124 -231 164 -87 39 -148 50 -180 34 -46
-24 -55 -99 -15 -131 7 -6 40 -21 73 -34 206 -76 355 -241 405 -449 17 -71 17
-209 1 -280 -19 -82 -85 -209 -141 -272 -65 -73 -168 -142 -260 -175 -98 -35
-254 -43 -351 -19 -155 39 -303 147 -388 281 -36 56 -47 66 -96 84 -114 43
-177 82 -254 159 -57 57 -86 96 -113 152 -58 120 -71 185 -65 327 6 143 0 156
-86 200 -74 37 -177 144 -216 224 -48 98 -68 212 -53 311 6 44 23 106 38 138
l27 60 46 -34 c111 -81 268 -136 388 -136 55 0 68 4 88 25 52 51 13 135 -62
135 -246 1 -481 204 -523 451 -29 169 20 322 145 458 72 79 76 93 50 177 -9
27 -18 87 -22 134 -10 156 42 288 161 406 107 105 225 154 371 154 144 0 264
-50 371 -155 100 -98 163 -234 164 -355 1 -75 50 -119 110 -99 49 18 62 59 50
156 -18 138 -67 254 -155 363 -113 141 -249 215 -473 256 -41 8 -67 83 -67
189 1 78 4 97 28 145 39 75 108 143 181 177 52 24 74 28 146 28 71 0 94 -4
141 -26 69 -32 132 -88 166 -146 46 -79 94 -93 144 -44 16 16 29 40 29 53 0
36 -52 118 -116 181 -53 53 -176 127 -210 127 -89 0 198 146 375 190 99 25
239 23 295 -5z m762 5 c176 -42 472 -190 380 -190 -34 0 -157 -74 -210 -127
-64 -63 -116 -145 -116 -181 0 -13 13 -37 29 -53 50 -49 98 -35 144 44 34 58
97 114 166 146 47 22 70 26 141 26 72 0 94 -4 146 -28 73 -34 142 -102 181
-177 24 -48 27 -67 28 -145 0 -106 -26 -181 -67 -189 -224 -41 -360 -115 -473
-256 -88 -109 -137 -225 -155 -363 -12 -97 1 -138 50 -156 60 -20 109 24 110
99 1 121 64 257 164 355 107 105 227 155 371 155 146 0 264 -49 371 -154 119
-118 171 -250 161 -406 -4 -47 -13 -107 -22 -134 -26 -84 -22 -98 50 -177 125
-136 174 -289 145 -458 -42 -247 -277 -450 -523 -451 -75 0 -114 -84 -62 -135
63 -64 318 -4 476 111 l46 34 27 -60 c86 -192 40 -427 -113 -581 -36 -36 -89
-78 -118 -92 -86 -44 -92 -57 -86 -200 6 -142 -7 -207 -65 -327 -27 -56 -56
-95 -113 -152 -77 -77 -140 -116 -254 -159 -49 -18 -60 -28 -96 -84 -85 -134
-233 -242 -388 -281 -97 -24 -253 -16 -351 19 -152 54 -279 167 -349 311 -70
145 -66 36 -66 1681 l0 1490 21 45 c40 85 144 160 222 160 47 0 90 25 99 58
15 55 -7 96 -57 107 -44 10 -148 -14 -214 -48 -34 -18 -65 -33 -69 -35 -14 -7
-3 769 11 803 34 78 89 132 167 162 47 18 171 15 261 -7z"/>
<path d="M1094 3417 c-27 -24 -29 -29 -28 -99 6 -292 228 -564 522 -639 41
-10 77 -20 79 -22 7 -8 -19 -73 -48 -118 -33 -51 -103 -109 -163 -134 -19 -8
-65 -19 -102 -24 -79 -12 -114 -38 -114 -86 0 -35 29 -72 63 -80 31 -8 147 11
212 36 66 25 157 90 208 150 43 50 90 142 107 209 l11 45 80 18 c140 32 327
145 359 219 17 39 1 79 -39 100 -42 21 -66 13 -129 -43 -58 -51 -169 -104
-246 -118 -183 -33 -345 18 -476 149 -99 98 -143 192 -159 335 -10 86 -26 110
-77 121 -24 5 -37 0 -60 -19z"/>
<path d="M1784 2005 c-288 -62 -516 -325 -541 -622 l-6 -73 -57 2 c-91 3 -139
-45 -108 -110 18 -36 48 -48 146 -61 251 -32 462 -266 462 -512 0 -32 7 -47
30 -71 26 -25 36 -29 63 -24 58 12 72 37 69 118 -9 239 -170 484 -386 590 -50
24 -51 25 -46 128 7 169 131 350 295 431 61 30 174 59 233 59 71 0 110 90 59
138 -19 18 -35 22 -88 21 -35 0 -92 -7 -125 -14z"/>
<path d="M4120 3517 c-34 -17 -47 -48 -59 -145 -27 -212 -194 -398 -402 -447
-171 -40 -337 0 -474 114 -71 59 -111 66 -150 26 -54 -53 -21 -116 106 -200
82 -55 165 -90 252 -107 l65 -12 10 -47 c46 -198 229 -361 438 -391 73 -11 85
-10 108 6 51 33 56 102 11 132 -13 9 -54 20 -91 25 -81 11 -170 56 -219 110
-36 40 -85 128 -85 152 0 9 24 20 68 30 246 60 450 261 512 503 27 105 27 207
0 234 -11 11 -24 20 -29 20 -5 0 -15 2 -23 5 -7 3 -24 -1 -38 -8z"/>
<path d="M2873 2189 c-48 -25 -53 -106 -7 -136 13 -8 58 -19 100 -24 99 -11
159 -31 231 -78 153 -99 252 -276 253 -451 l0 -56 -53 -26 c-71 -35 -194 -135
-238 -195 -87 -116 -137 -245 -146 -378 -6 -80 -5 -84 20 -109 60 -60 131 -19
141 80 16 143 55 236 140 331 93 103 212 162 360 178 53 6 75 13 93 31 31 31
30 78 -2 109 -20 21 -34 25 -84 25 l-60 0 -5 33 c-18 132 -27 170 -51 232 -78
197 -238 347 -439 411 -90 28 -219 40 -253 23z"/>
</g>
</svg>
